HIERARCHY
ROOT root
{
	OFFSET	0	13.1	24.9
	CHANNELS 6  Xposition Yposition Zposition Xrotation Yrotation Zrotation
	JOINT spine_1
	{
		OFFSET	0	9.99999	0
		CHANNELS 3  Xrotation Yrotation Zrotation
		JOINT spine_2
		{
			OFFSET	0	112	-10
			CHANNELS 3  Xrotation Yrotation Zrotation
			JOINT spine_3
			{
				OFFSET	0	206.5	19.3
				CHANNELS 3  Xrotation Yrotation Zrotation
				JOINT spine_4
				{
					OFFSET	0	110.4	14.6
					CHANNELS 3  Xrotation Yrotation Zrotation
					JOINT neck_1
					{
						OFFSET	0	71.8	-50.3
						CHANNELS 3  Xrotation Yrotation Zrotation
						JOINT neck_2
						{
							OFFSET	0	86.2	-25.8
							CHANNELS 3  Xrotation Yrotation Zrotation
							JOINT head_ee
							{
								OFFSET	0	179.8	-8.7
								CHANNELS 3  Xrotation Yrotation Zrotation
								End Site
								{
									OFFSET	1	0	0
								}
							}
						}
					}
					JOINT left_clavicle
					{
						OFFSET	-43.2	22.4	-70.8
						CHANNELS 3  Xrotation Yrotation Zrotation
						JOINT left_shoulder
						{
							OFFSET	-93.9	-5.79999	48.7
							CHANNELS 3  Xrotation Yrotation Zrotation
							JOINT left_elbow
							{
								OFFSET	-291.4	-30.8	15.2
								CHANNELS 3  Xrotation Yrotation Zrotation
								JOINT left_lowarm_twist
								{
									OFFSET	-110.7	-3.89999	13.6
									CHANNELS 3  Xrotation Yrotation Zrotation
									JOINT left_hand
									{
										OFFSET	-110.7	-3.89999	13.6
										CHANNELS 3  Xrotation Yrotation Zrotation
										JOINT left_ee
										{
											OFFSET	-80.8	-5.10001	12.1
											CHANNELS 3  Xrotation Yrotation Zrotation
											End Site
											{
												OFFSET	1	0	0
											}
										}
									}
								}
							}
						}
					}
					JOINT right_clavicle
					{
						OFFSET	43.2	22.4	-70.8
						CHANNELS 3  Xrotation Yrotation Zrotation
						JOINT right_shoulder
						{
							OFFSET	93.9	-5.79999	48.7
							CHANNELS 3  Xrotation Yrotation Zrotation
							JOINT right_elbow
							{
								OFFSET	291.4	-30.8	15.2
								CHANNELS 3  Xrotation Yrotation Zrotation
								JOINT right_lowarm_twist
								{
									OFFSET	110.7	-3.89999	13.6
									CHANNELS 3  Xrotation Yrotation Zrotation
									JOINT right_hand
									{
										OFFSET	110.7	-3.89999	13.6
										CHANNELS 3  Xrotation Yrotation Zrotation
										JOINT right_ee
										{
											OFFSET	80.8	-5.10001	12.1
											CHANNELS 3  Xrotation Yrotation Zrotation
											End Site
											{
												OFFSET	1	0	0
											}
										}
									}
								}
							}
						}
					}
				}
			}
		}
	}
	JOINT left_hip
	{
		OFFSET	-82.8	-127.5	0.300001
		CHANNELS 3  Xrotation Yrotation Zrotation
		JOINT left_knee
		{
			OFFSET	-28.2	-396.7	2.2
			CHANNELS 3  Xrotation Yrotation Zrotation
			JOINT left_ankle
			{
				OFFSET	-11.7	-411.3	35.4
				CHANNELS 3  Xrotation Yrotation Zrotation
				JOINT left_toes
				{
					OFFSET	0	-60	-88.6
					CHANNELS 3  Xrotation Yrotation Zrotation
					JOINT left_foot_ee
					{
						OFFSET	-22.5	-16.5	-42.2
						CHANNELS 3  Xrotation Yrotation Zrotation
						End Site
						{
							OFFSET	1	0	0
						}
					}
				}
			}
		}
	}
	JOINT right_hip
	{
		OFFSET	82.8	-127.5	0.300001
		CHANNELS 3  Xrotation Yrotation Zrotation
		JOINT right_knee
		{
			OFFSET	28.2	-396.7	2.2
			CHANNELS 3  Xrotation Yrotation Zrotation
			JOINT right_ankle
			{
				OFFSET	11.7	-411.3	35.4
				CHANNELS 3  Xrotation Yrotation Zrotation
				JOINT right_toes
				{
					OFFSET	0	-60	-88.6
					CHANNELS 3  Xrotation Yrotation Zrotation
					JOINT right_foot_ee
					{
						OFFSET	22.5	-16.5	-42.2
						CHANNELS 3  Xrotation Yrotation Zrotation
						End Site
						{
							OFFSET	1	0	0
						}
					}
				}
			}
		}
	}
}
MOTION
Frames: 16
Frame Time: 0.02
3934.36 649.838 -134.675 -29.7227 32.1033 23.6701 10.9967 -0.291569 -0.415252 10.9968 -0.264555 -0.432964 10.9986 -0.255941 -0.438111 10.9985 -0.32192 -0.392192 -17.6075 9.36684 -3.24347 -18.0554 19.7757 0.592722 -0.0 0.0 -0.0 0.730247 16.7637 3.10239 -10.2909 -19.8537 69.6115 1.24841 -31.7324 0.354837 -21.8638 -1.25959 2.47874 2.52049 -19.9984 8.22071 -0.0 0.0 -0.0 8.70072 14.6192 -16.8464 -34.7444 52.039 -71.4847 0.239265 6.75961 -0.0141303 -73.9147 7.04619 -5.3202 -9.7771 -30.9855 44.9053 0.0 0.0 0.0 35.802 23.5697 -6.78595 -8.05843 0.246955 1.21105 32.2591 17.2719 -4.20696 -14.5708 0.0 0.0 -0.0 0.0 -0.0 38.0743 0.618559 -3.41712 -5.08212 -0.175632 -0.759925 17.3937 -15.2133 2.42533 15.3554 -0.0 -0.0 0.0 0.0 0.0 
3934.02 657.332 -135.21 -30.1054 32.9247 24.1568 10.9425 -0.165509 -0.0765636 10.9425 -0.160301 -0.0869401 10.9428 -0.158461 -0.09025 10.9428 -0.170726 -0.0640913 -18.1088 9.04073 -2.79623 -18.5422 18.8937 0.962033 -0.0 0.0 -0.0 -0.0753527 17.8545 1.97559 -11.5724 -19.9157 69.1106 1.17647 -30.2321 0.3178 -22.7201 -1.32756 2.56485 2.27036 -20.3425 6.39162 -0.0 0.0 -0.0 8.26267 12.4357 -15.9904 -33.3901 51.9271 -73.4436 0.233008 6.5844 -0.0134033 -74.0482 7.06326 -5.3202 -9.77166 -30.9704 44.8841 0.0 0.0 0.0 34.9413 20.472 -6.50984 -7.48007 0.234932 1.12312 30.1403 18.1902 -3.99071 -14.725 0.0 0.0 -0.0 0.0 -0.0 38.4418 0.338048 -3.34177 -6.54996 -0.213737 -0.981957 16.1266 -18.57 2.28225 15.8776 -0.0 -0.0 0.0 0.0 0.0 
3930.89 655.36 -140.969 -30.4031 32.8815 24.2095 11.0402 -0.117851 0.0666676 11.0402 -0.121854 0.0590334 11.0401 -0.122958 0.056699 11.0401 -0.11246 0.0754063 -18.4425 8.77466 -2.50146 -18.8601 18.217 1.18043 -0.0 0.0 -0.0 -0.467946 18.2364 1.42447 -10.837 -20.0549 69.3632 1.12982 -29.2338 0.29466 -23.046 -1.35377 2.59736 2.05719 -20.0784 5.10141 -0.0 0.0 -0.0 7.88396 10.7154 -15.241 -32.2431 51.8027 -74.7854 0.18735 5.30242 -0.00867525 -74.0857 7.06805 -5.32019 -9.72135 -30.8537 44.6516 0.0 0.0 0.0 34.1869 18.3931 -5.59499 -7.07677 0.226024 1.06187 28.645 18.8115 -3.83224 -14.9055 0.0 0.0 -0.0 0.0 -0.0 38.5386 0.255574 -3.93251 -9.08541 -0.266113 -1.36748 15.0574 -20.6887 2.15666 16.2629 -0.0 -0.0 0.0 0.0 0.0 
3932.11 654.687 -140.222 -30.6706 32.3055 23.9833 11.1385 -0.0914546 0.132541 11.1386 -0.0997032 0.126453 11.1383 -0.101883 0.124704 11.1383 -0.0809096 0.139229 -18.3723 8.45013 -2.31788 -18.7546 17.4969 1.2032 -0.0 0.0 -0.0 -0.957771 18.4836 0.716085 -10.3306 -20.2427 69.6124 1.09772 -28.5356 0.279156 -23.172 -1.36396 2.60988 1.98252 -20.3062 4.50007 -0.0 0.0 -0.0 7.35028 8.70646 -14.1747 -31.6877 51.6713 -75.5672 0.183616 5.19733 -0.00833363 -74.4125 7.10981 -5.32001 -9.68674 -30.7733 44.4916 0.0 0.0 0.0 33.6242 16.4936 -5.35953 -7.09366 0.226405 1.06443 26.7843 18.775 -3.61733 -15.28 0.0 0.0 -0.0 0.0 -0.0 38.6748 0.489815 -3.97909 -10.8745 -0.29278 -1.6407 15.2405 -22.3731 2.19743 16.4732 -0.0 -0.0 0.0 0.0 0.0 
3929.71 651.248 -143.803 -30.5033 32.9305 23.8349 11.2056 -0.0773175 0.150276 11.2057 -0.0867232 0.145051 11.2054 -0.0890596 0.143629 11.2054 -0.0652584 0.155891 -16.6486 8.10779 -2.62542 -16.9454 17.0391 0.509769 -0.0 0.0 -0.0 -1.28765 18.4448 0.21204 -9.94758 -20.9692 70.1139 1.07271 -27.9849 0.267314 -23.4329 -1.38513 2.63575 1.9556 -20.455 4.25253 -0.0 0.0 -0.0 6.74586 7.34914 -12.952 -29.8928 50.6093 -76.9216 0.194497 5.50348 -0.00934829 -74.466 7.11664 -5.31996 -9.58351 -30.6612 43.8191 0.0 0.0 0.0 32.9794 14.0369 -5.16014 -8.79735 0.261023 1.32357 25.8319 17.3166 -3.48736 -15.4127 0.0 0.0 -0.0 0.0 -0.0 40.7248 0.679618 -3.14503 -13.3512 -0.31559 -2.01999 10.9935 -25.4604 1.63388 16.5639 -0.0 -0.0 0.0 0.0 0.0 
3925.97 652.404 -145.278 -30.2848 33.1941 23.6759 11.0214 -0.0543998 0.243731 11.0214 -0.0697988 0.239776 11.0211 -0.0744379 0.238376 11.021 -0.0358568 0.247141 -15.6124 7.83978 -2.91383 -15.8576 16.708 -0.0187191 -0.0 0.0 -0.0 -1.41757 18.5581 0.0327077 -8.0269 -22.0519 72.7782 1.06029 -27.7093 0.26151 -23.8311 -1.41767 2.67505 1.75741 -19.7242 3.27766 -0.0 0.0 -0.0 6.3886 6.5763 -12.2369 -27.4144 49.7549 -77.5035 0.199443 5.64255 -0.0098287 -74.487 7.11933 -5.31993 -9.49785 -30.4777 43.4032 0.0 0.0 0.0 32.5071 12.3343 -4.89224 -9.62715 0.275088 1.45012 25.1578 16.0794 -3.39473 -15.5053 0.0 0.0 -0.0 0.0 -0.0 41.1065 0.650303 -3.5311 -15.3531 -0.322034 -2.32706 8.20561 -28.3106 1.2511 16.625 -0.0 -0.0 0.0 0.0 0.0 
3926.3 651.318 -143.386 -30.0974 33.2433 23.6346 10.7728 -0.040911 0.276248 10.7728 -0.0584064 0.273085 10.7724 -0.0648734 0.271621 10.7723 -0.0211619 0.278458 -14.868 8.16578 -3.27982 -15.1084 17.5591 -0.363563 -0.0 0.0 -0.0 -1.74978 18.3694 -0.499344 -6.56979 -22.7097 74.083 1.05196 -27.5238 0.257651 -23.3698 -1.37999 2.6295 1.69036 -19.8953 2.75498 -0.0 0.0 -0.0 5.8856 5.3708 -11.2458 -25.8804 48.7313 -77.6936 0.18955 5.36435 -0.00887987 -74.5768 7.13081 -5.31983 -9.64055 -30.869 43.9637 0.0 0.0 0.0 32.33 11.4267 -4.80525 -8.60149 0.257435 1.29373 24.6577 15.0117 -3.32581 -16.5673 0.0 0.0 -0.0 0.0 -0.0 41.4965 0.669167 -3.65315 -16.7194 -0.320271 -2.53668 4.72323 -29.001 0.730266 15.1487 -0.0 -0.0 0.0 0.0 0.0 
3925.97 650.374 -143.161 -30.1179 33.5595 23.786 10.8084 -0.0346738 0.268381 10.8084 -0.0516812 0.265631 10.8081 -0.0578086 0.264365 10.808 -0.0153317 0.270177 -14.9021 7.94938 -4.07852 -15.1288 17.6189 -1.18854 -0.0 0.0 -0.0 -2.09824 18.4498 -1.01425 -5.83496 -23.0755 74.944 1.04315 -27.3267 0.253592 -23.0759 -1.35618 2.60032 1.59266 -19.3985 2.33391 -0.0 0.0 -0.0 5.32821 4.76732 -10.1351 -22.9364 47.555 -79.0431 0.18466 5.22674 -0.0084285 -73.9618 7.05222 -5.3202 -9.72556 -30.8811 44.6431 0.0 0.0 0.0 32.2021 10.7028 -4.70616 -7.89199 0.243586 1.18573 25.7888 15.2567 -3.46104 -17.341 0.0 0.0 -0.0 0.0 -0.0 41.7327 2.52276 -3.80524 -17.6762 -0.316061 -2.68342 2.34435 -29.2137 0.365085 13.5973 -0.0 -0.0 0.0 0.0 0.0 
3925.55 644.062 -141.505 -30.1059 33.7827 23.8502 10.8054 -0.0182195 0.363384 10.8055 -0.0413055 0.361488 10.8051 -0.0496706 0.360434 10.8049 0.00787621 0.363755 -15.132 7.86448 -4.59957 -15.3588 17.7563 -1.67428 -0.0 0.0 -0.0 -2.41979 18.605 -1.47406 -5.48923 -23.3139 75.7702 1.03621 -27.1711 0.250415 -22.8146 -1.33515 2.57429 1.49601 -18.9714 1.88584 -0.0 0.0 -0.0 4.87934 4.37813 -9.24493 -20.7339 46.549 -79.7823 0.186568 5.28042 -0.00860326 -73.4185 6.98278 -5.31983 -9.8025 -30.9654 45.1494 0.0 0.0 0.0 32.0974 10.1259 -4.42416 -7.39921 0.233181 1.11083 26.8252 15.5596 -3.58411 -17.7974 0.0 0.0 -0.0 0.0 -0.0 41.9963 4.61695 -4.12511 -18.3423 -0.311684 -2.78553 0.723424 -29.1057 0.11299 12.4609 -0.0 -0.0 0.0 0.0 0.0 
3928.82 642.502 -139.993 -30.4147 34.0292 24.178 10.7086 -0.00926115 0.412611 10.7086 -0.0354976 0.411185 10.7082 -0.0457097 0.410176 10.7079 0.0196429 0.412247 -14.9164 7.51528 -5.26904 -15.1074 17.4959 -2.46493 -0.0 0.0 -0.0 -2.4973 17.7011 -1.75542 -5.04417 -23.486 76.5173 1.03221 -27.0812 0.248592 -21.8631 -1.25954 2.47867 1.34089 -17.6343 1.45345 -0.0 0.0 -0.0 3.61785 4.35506 -6.71089 -17.0469 45.4339 -82.6243 0.178106 5.0422 -0.00784206 -73.0475 6.93535 -5.31919 -9.89923 -31.0605 45.8107 0.0 0.0 0.0 31.833 9.4057 -4.49691 -7.06861 0.225839 1.06063 29.4535 16.5525 -3.8924 -18.452 0.0 0.0 -0.0 0.0 -0.0 42.4107 6.18851 -4.09745 -18.7021 -0.308826 -2.84065 0.186953 -27.7014 0.0289741 11.6522 -0.0 -0.0 0.0 0.0 0.0 
3928.15 644.129 -142.668 -30.3102 34.2766 24.3776 10.6433 0.00596187 0.386992 10.6434 -0.0186753 0.386587 10.643 -0.0287194 0.385971 10.6428 0.0325975 0.385663 -14.2799 7.49445 -5.80371 -14.439 17.8126 -3.08172 -0.0 0.0 -0.0 -2.23722 17.6394 -1.36615 -7.91429 -24.1534 74.6758 0.985302 -26.016 0.227625 -20.1188 -1.12511 2.30021 0.960684 -17.1989 -0.890059 -0.0 0.0 -0.0 3.03157 4.37475 -5.53562 -14.4478 43.4179 -85.3307 0.175544 4.97004 -0.0076184 -73.8328 7.03573 -5.32017 -9.66728 -30.2448 45.1591 0.0 0.0 0.0 31.6373 8.00252 -4.4892 -8.32613 0.252219 1.2518 32.4316 17.3577 -4.22653 -18.6722 0.0 0.0 -0.0 0.0 -0.0 42.6021 8.66112 -4.14484 -20.1945 -0.293276 -3.0691 1.64883 -25.1745 0.251065 10.8274 -0.0 -0.0 0.0 0.0 0.0 
3926.69 642.628 -143.177 -30.3662 34.2785 23.8572 10.6294 0.0193053 0.406898 10.6295 -0.00662551 0.407301 10.6292 -0.0173103 0.406987 10.629 0.0471825 0.404614 -13.4853 7.9427 -4.19212 -13.6585 17.7164 -1.52658 -0.0 0.0 -0.0 -1.95649 17.118 -1.02109 -8.77955 -24.5552 73.6939 0.997436 -26.2935 0.232974 -17.8926 -0.961582 2.0667 0.679004 -15.1055 -1.86388 -0.0 0.0 -0.0 2.51544 4.77518 -4.47095 -13.3513 41.4002 -86.2476 0.176509 4.9972 -0.00770219 -75.002 7.18513 -5.31907 -9.3116 -28.432 44.9197 0.0 0.0 0.0 31.4903 7.09878 -3.88499 -7.57051 0.236871 1.13686 33.9628 18.9087 -4.41268 -19.3013 0.0 0.0 -0.0 0.0 -0.0 42.9504 10.6551 -4.29707 -21.2119 -0.279267 -3.22459 1.70538 -23.4375 0.257401 9.8896 -0.0 -0.0 0.0 0.0 0.0 
3928.09 648.004 -143.938 -30.8713 33.9781 23.556 10.6233 0.019975 0.412186 10.6234 -0.00629373 0.412621 10.6231 -0.0171619 0.412312 10.6229 0.04817 0.409848 -14.269 8.00229 -2.98915 -14.4786 17.0815 -0.239109 -0.0 0.0 -0.0 -1.86182 18.4 -0.664222 -9.46685 -24.882 72.4875 1.0945 -28.465 0.277621 -16.9976 -0.898426 1.97108 0.409788 -11.9283 -2.30779 -0.0 0.0 -0.0 3.03043 4.85141 -5.49792 -14.4277 39.3372 -84.8868 0.174724 4.94693 -0.00754757 -76.6147 7.39102 -5.3125 -8.82487 -26.7792 43.1758 0.0 0.0 0.0 31.7719 8.14685 -3.40919 -7.46211 0.234545 1.12039 35.0561 18.5386 -4.51837 -19.7465 0.0 0.0 -0.0 0.0 -0.0 43.2787 12.0671 -4.34513 -21.9124 -0.268016 -3.3315 3.3778 -20.8452 0.502115 7.79114 -0.0 -0.0 0.0 0.0 0.0 
3927.56 651.769 -144.0 -30.8632 33.7698 23.1261 10.7359 0.0247894 0.41561 10.736 -0.00170692 0.416345 10.7358 -0.0118563 0.41618 10.7355 0.0540197 0.412829 -14.81 8.02216 -2.13217 -15.0364 16.6035 0.660603 -0.0 0.0 -0.0 -1.85206 19.5903 -0.454507 -9.98717 -25.0953 71.6719 1.17229 -30.1435 0.315699 -16.3716 -0.855147 1.90363 0.222773 -9.67306 -2.6059 -0.0 0.0 -0.0 3.55873 4.67455 -6.57116 -14.7641 37.8551 -84.3186 0.177274 5.01876 -0.00776903 -77.7433 7.5349 -5.30444 -8.47553 -25.5844 41.8678 0.0 0.0 0.0 31.9657 8.88009 -3.09702 -7.45967 0.234492 1.12002 35.6905 18.2903 -4.57791 -20.0872 0.0 0.0 -0.0 0.0 -0.0 43.4594 13.1297 -4.19859 -22.352 -0.260288 -3.39851 4.53609 -19.0279 0.667854 6.32213 -0.0 -0.0 0.0 0.0 0.0 
3930.41 649.346 -144.139 -31.3821 34.0668 22.8584 10.7765 0.0367425 0.431663 10.7766 0.00920049 0.433126 10.7764 -0.00105364 0.433222 10.7762 0.0673783 0.427952 -15.3603 8.00719 -1.51534 -15.5985 16.2137 1.31819 -0.0 0.0 -0.0 -2.12304 20.4925 -0.701602 -10.437 -25.2245 71.1118 1.23667 -31.4907 0.348681 -15.9097 -0.823689 1.85356 0.0926625 -8.09468 -2.81173 -0.0 0.0 -0.0 3.93306 4.57316 -7.32966 -14.7551 36.7406 -83.1895 0.185702 5.25605 -0.00852375 -78.4443 7.62416 -5.29799 -8.22174 -24.7413 40.8549 0.0 0.0 0.0 32.0449 9.35192 -3.11005 -7.42686 0.233782 1.11503 36.0426 18.1651 -4.61081 -20.347 0.0 0.0 -0.0 0.0 -0.0 43.6333 13.8877 -4.04467 -22.6074 -0.255564 -3.43741 5.39257 -17.7497 0.788918 5.30676 -0.0 -0.0 0.0 0.0 0.0 
3933.12 649.099 -146.793 -31.465 34.101 22.7265 10.7928 0.0447453 0.440263 10.7929 0.0166398 0.442218 10.7928 0.0062947 0.442486 10.7925 0.0760974 0.435939 -15.7254 7.98154 -1.09762 -15.9684 15.9255 1.7545 -0.0 0.0 -0.0 -2.25687 21.2603 -0.761957 -10.8406 -25.3817 71.1629 1.28272 -32.4313 0.37306 -15.5862 -0.801895 1.81834 0.00265415 -6.98056 -2.94491 -0.0 0.0 -0.0 4.28218 4.41951 -8.04044 -14.5876 35.9471 -82.5593 0.1929 5.45859 -0.00919584 -78.9241 7.68519 -5.29294 -8.04519 -24.1592 40.1321 0.0 0.0 0.0 32.15 9.66935 -3.16795 -7.38226 0.232812 1.10826 36.231 18.0748 -4.62788 -20.5403 0.0 0.0 -0.0 0.0 -0.0 43.8541 14.4587 -3.8309 -22.4338 -0.258795 -3.41096 6.02574 -16.8519 0.87775 4.60315 -0.0 -0.0 0.0 0.0 0.0 
